<?xml version="1.0" standalone="no"?><svg xmlns="http://www.w3.org/2000/svg" viewBox="0 0 1440 320"><path fill="#CFDFDF" fill-opacity="1" d="M0,160L34.3,138.7C68.6,117,137,75,206,48C274.3,21,343,11,411,26.7C480,43,549,85,617,96C685.7,107,754,85,823,96C891.4,107,960,149,1029,176C1097.1,203,1166,213,1234,186.7C1302.9,160,1371,96,1406,64L1440,32L1440,320L1405.7,320C1371.4,320,1303,320,1234,320C1165.7,320,1097,320,1029,320C960,320,891,320,823,320C754.3,320,686,320,617,320C548.6,320,480,320,411,320C342.9,320,274,320,206,320C137.1,320,69,320,34,320L0,320Z"></path></svg>