<?xml version="1.0" standalone="no"?><svg xmlns="http://www.w3.org/2000/svg" viewBox="0 0 1440 320"><path fill="#CFDFDF" fill-opacity="1" d="M0,32L18.5,74.7C36.9,117,74,203,111,218.7C147.7,235,185,181,222,133.3C258.5,85,295,43,332,69.3C369.2,96,406,192,443,213.3C480,235,517,181,554,165.3C590.8,149,628,171,665,197.3C701.5,224,738,256,775,261.3C812.3,267,849,245,886,202.7C923.1,160,960,96,997,85.3C1033.8,75,1071,117,1108,122.7C1144.6,128,1182,96,1218,112C1255.4,128,1292,192,1329,202.7C1366.2,213,1403,171,1422,149.3L1440,128L1440,0L1421.5,0C1403.1,0,1366,0,1329,0C1292.3,0,1255,0,1218,0C1181.5,0,1145,0,1108,0C1070.8,0,1034,0,997,0C960,0,923,0,886,0C849.2,0,812,0,775,0C738.5,0,702,0,665,0C627.7,0,591,0,554,0C516.9,0,480,0,443,0C406.2,0,369,0,332,0C295.4,0,258,0,222,0C184.6,0,148,0,111,0C73.8,0,37,0,18,0L0,0Z"></path></svg>